Black Beauty (1994)(HQC) DVDRip NLSubs-DMT

[IMG]http://img825.imageshack.us/img825/8317/frontxxe.jpg[/IMG]

Verenigde Staten / Verenigd Koninkrijk
Familie / Drama
88 minuten

geregisseerd door Caroline Thompson
met Sean Bean, David Thewlis en Jim Carter

Het paard Black Beauty heeft geen geluk in het leven. Keer op keer wordt de arme drommel mishandeld door zijn baasje. 
Wanneer hij echter door een aardige mensenfamilie wordt geadopteerd, 
lijkt Black Beauty voor het eerst in zijn leven een beetje gelukkig te kunnen worden. Naar het jeugdboek van Anna Sewell.
--------------------------------------------------------------------------------------------------------------------------
PLOT

The fates of horses, and the people who own and command them, are revealed as Black Beauty narrates the circle of his life. 
---------------------------------------------------------------------------------------------------------------------------

MM:    http://www.moviemeter.nl/film/8258

IMDB:    http://www.imdb.com/title/tt0109279/
---------------------------------------------------------------------------------------------------------------------------
Sceens (rough)

     http://img64.imageshack.us/img64/4570/blackbeauty1994title1av.jpg
     http://img691.imageshack.us/img691/4570/blackbeauty1994title1av.jpg
     http://img694.imageshack.us/img694/4570/blackbeauty1994title1av.jpg
     http://img204.imageshack.us/img204/4570/blackbeauty1994title1av.jpg
     http://img443.imageshack.us/img443/4570/blackbeauty1994title1av.jpg
---------------------------------------------------------------------------------------------------------------------------
INFO

Source....: Retail
Subs......: NL idx/sub
General
Complete name                    : Black.Beauty.1994.HQC.DVDRip.NLSubs-DMT.avi
Format                           : AVI
Format/Info                      : Audio Video Interleave
File size                        : 705 MiB
Duration                         : 1h 24mn
Overall bit rate                 : 1 167 Kbps
Movie name                       : Black Beauty (1994).Title1.DVDRip
Writing application              : Lavf52.33.0
Original source form/Name        : Black Beauty (1994)

Video
ID                               : 0
Format                           : AVC
Format/Info                      : Advanced Video Codec
Codec ID                         : H264
Duration                         : 1h 24mn
Bit rate                         : 1 027 Kbps
Width                            : 720 pixels
Height                           : 408 pixels
Display aspect ratio             : 16:9
Frame rate                       : 25.000 fps
Color space                      : YUV
Chroma subsampling               : 4:2:0
Bits/(Pixel*Frame)               : 0.140
Stream size                      : 620 MiB (88%)

Audio
ID                               : 1
Format                           : MPEG Audio
Format version                   : Version 1
Format profile                   : Layer 3
Mode                             : Joint stereo
Mode extension                   : MS Stereo
Codec ID                         : 55
Codec ID/Hint                    : MP3
Duration                         : 1h 24mn
Bit rate mode                    : Constant
Bit rate                         : 128 Kbps
Channel(s)                       : 2 channels
Sampling rate                    : 48.0 KHz
Stream size                      : 77.3 MiB (11%)
Alignment                        : Aligned on interleaves
Interleave, duration             : 24 ms (0.60 video frame)
Interleave, preload duration     : 24 ms

